<?xml version="1.0" encoding="UTF-8" standalone="no"?>
<!-- Created with Inkscape (http://www.inkscape.org/) -->

<svg
   xmlns:dc="http://purl.org/dc/elements/1.1/"
   xmlns:cc="http://creativecommons.org/ns#"
   xmlns:rdf="http://www.w3.org/1999/02/22-rdf-syntax-ns#"
   xmlns:svg="http://www.w3.org/2000/svg"
   xmlns="http://www.w3.org/2000/svg"
   xmlns:sodipodi="http://sodipodi.sourceforge.net/DTD/sodipodi-0.dtd"
   xmlns:inkscape="http://www.inkscape.org/namespaces/inkscape"
   id="svg2"
   version="1.1"
   inkscape:version="0.91 r13725"
   width="112"
   height="112"
   viewBox="0 0 112 112"
   sodipodi:docname="icon-little-gear.svg"
   inkscape:export-filename="/home/hhl/.kde/share/apps/ksplash/Themes/siduction_KSplash/images/kdegear-1.png"
   inkscape:export-xdpi="90"
   inkscape:export-ydpi="90">
  <metadata
     id="metadata8">
    <rdf:RDF>
      <cc:Work
         rdf:about="">
        <dc:format>image/svg+xml</dc:format>
        <dc:type
           rdf:resource="http://purl.org/dc/dcmitype/StillImage" />
        <dc:title></dc:title>
      </cc:Work>
    </rdf:RDF>
  </metadata>
  <defs
     id="defs6" />
  <sodipodi:namedview
     pagecolor="#ffffff"
     bordercolor="#666666"
     borderopacity="1"
     objecttolerance="10"
     gridtolerance="10"
     guidetolerance="10"
     inkscape:pageopacity="0"
     inkscape:pageshadow="2"
     inkscape:window-width="1440"
     inkscape:window-height="853"
     id="namedview4"
     showgrid="false"
     inkscape:zoom="2.97995"
     inkscape:cx="14.598847"
     inkscape:cy="63.485754"
     inkscape:window-x="-7"
     inkscape:window-y="17"
     inkscape:window-maximized="1"
     inkscape:current-layer="svg2"
     borderlayer="true" />
  <rect
     style="opacity:1;fill:#1a1a1a;fill-opacity:1;stroke:none;stroke-width:0.38999999;stroke-linecap:round;stroke-linejoin:round;stroke-miterlimit:4;stroke-dasharray:none;stroke-opacity:1"
     id="rect4166"
     width="151.46855"
     height="133.22469"
     x="520.37256"
     y="-19.543146" />
  <path
     style="opacity:1;fill:#ffffff;fill-opacity:1;stroke:none;stroke-width:0.257;stroke-miterlimit:4;stroke-dasharray:none;stroke-opacity:1"
     d="m 59.658654,29.704544 -7.443585,-0.112144 0.03663,6.536994 c -2.760202,0.520871 -5.381017,1.613069 -7.694242,3.206497 l -4.404836,-4.583188 -5.367942,5.158738 4.54077,4.724907 c -1.55874,2.300425 -2.624837,4.898379 -3.131301,7.630616 l -6.630873,0.07809 0.08773,7.443585 6.568209,-0.07809 c 0.502958,2.612743 1.518376,5.10001 2.987654,7.318256 l -4.641034,4.304573 5.062332,5.4576 4.773111,-4.42701 c 2.351327,1.661976 5.031534,2.800727 7.860063,3.33954 l -0.128532,6.663442 7.444549,0.04065 0.128533,-6.69638 c 2.783367,-0.51907 5.426105,-1.618873 7.755942,-3.227727 l 4.333495,4.509922 5.367942,-5.157777 -4.475212,-4.656458 c 1.507492,-2.234678 2.551292,-4.749106 3.069599,-7.394417 l 6.664619,0.01253 0.01445,-7.444549 -6.623158,-0.01253 c -0.464369,-2.556041 -1.418643,-4.998191 -2.810255,-7.19194 l 4.704661,-4.363381 -5.062331,-5.457601 -4.719123,4.376878 c -2.439364,-1.798258 -5.252927,-3.023137 -8.23123,-3.583448 z m -3.658646,11.884379 c 7.913143,-4e-6 14.328014,6.414867 14.32801,14.32801 4e-6,7.913143 -6.414867,14.328013 -14.32801,14.32801 -7.913143,3e-6 -14.328013,-6.414867 -14.328009,-14.32801 -4e-6,-7.913143 6.414866,-14.328014 14.328009,-14.32801 z"
     id="path4209-2"
     inkscape:connector-curvature="0"
     sodipodi:nodetypes="cccccccccccccccccccccccccccccccccsssss" />
  <g
     id="g4192"
     transform="matrix(1.0455839,0,0,1.0455839,-153.89752,-57.922754)"
     style="fill:#000000">
    <path
       style="opacity:1;fill:#000000;fill-opacity:1;stroke:none;stroke-width:0.257;stroke-miterlimit:4;stroke-dasharray:none;stroke-opacity:1"
       d="M 63.412109,2.895903 48.332031,2.6687069 48.406251,15.912109 c -5.59194,1.05524 -10.901491,3.267941 -15.587891,6.496094 l -8.923828,-9.285156 -10.875,10.451172 9.199219,9.572265 C 19.060876,37.80695 16.901053,43.070188 15.875,48.605469 L 2.4414062,48.763672 2.6191406,63.84375 15.925781,63.685547 c 1.018949,5.293198 3.076101,10.332192 6.052735,14.826172 l -9.402344,8.720703 10.255859,11.05664 9.669922,-8.96875 c 4.763591,3.367023 10.193464,5.674037 15.923828,6.765626 l -0.260396,13.499572 15.082031,0.0824 0.260396,-13.566308 C 69.146681,95.050011 74.500646,92.821903 79.220703,89.5625 L 88,98.699219 98.875,88.25 89.808594,78.816406 c 3.054052,-4.527269 5.168701,-9.62129 6.21875,-14.980468 l 13.501956,0.02539 0.0293,-15.082031 -13.417965,-0.02539 C 95.199833,43.575535 93.266555,38.627945 90.447266,34.183594 l 9.53125,-8.839844 -10.25586,-11.056641 -9.560547,8.867188 C 75.22016,19.511176 69.52012,17.029675 63.486328,15.894531 Z M 56,26.972656 C 72.031363,26.972648 85.027352,39.968637 85.027344,56 85.027352,72.031363 72.031363,85.027352 56,85.027344 39.968637,85.027352 26.972648,72.031363 26.972656,56 26.972648,39.968637 39.968637,26.972648 56,26.972656 Z"
       id="path4209"
       inkscape:connector-curvature="0"
       sodipodi:nodetypes="cccccccccccccccccccccccccccccccccsssss" />
  </g>
</svg>
