<?xml version="1.0" encoding="UTF-8" standalone="no"?>
<!-- Created with Inkscape (http://www.inkscape.org/) -->

<svg
   xmlns:dc="http://purl.org/dc/elements/1.1/"
   xmlns:cc="http://creativecommons.org/ns#"
   xmlns:rdf="http://www.w3.org/1999/02/22-rdf-syntax-ns#"
   xmlns:svg="http://www.w3.org/2000/svg"
   xmlns="http://www.w3.org/2000/svg"
   xmlns:sodipodi="http://sodipodi.sourceforge.net/DTD/sodipodi-0.dtd"
   xmlns:inkscape="http://www.inkscape.org/namespaces/inkscape"
   id="svg2"
   version="1.1"
   inkscape:version="0.91 r13725"
   width="112"
   height="112"
   viewBox="0 0 112 112"
   sodipodi:docname="icon-3-gears.svg"
   inkscape:export-filename="/home/hhl/.kde/share/apps/ksplash/Themes/siduction_KSplash/images/kdegear-1.png"
   inkscape:export-xdpi="90"
   inkscape:export-ydpi="90">
  <metadata
     id="metadata8">
    <rdf:RDF>
      <cc:Work
         rdf:about="">
        <dc:format>image/svg+xml</dc:format>
        <dc:type
           rdf:resource="http://purl.org/dc/dcmitype/StillImage" />
        <dc:title></dc:title>
      </cc:Work>
    </rdf:RDF>
  </metadata>
  <defs
     id="defs6" />
  <sodipodi:namedview
     pagecolor="#ffffff"
     bordercolor="#666666"
     borderopacity="1"
     objecttolerance="10"
     gridtolerance="10"
     guidetolerance="10"
     inkscape:pageopacity="0"
     inkscape:pageshadow="2"
     inkscape:window-width="1440"
     inkscape:window-height="853"
     id="namedview4"
     showgrid="false"
     inkscape:zoom="2.97995"
     inkscape:cx="-30.36835"
     inkscape:cy="63.485754"
     inkscape:window-x="-7"
     inkscape:window-y="17"
     inkscape:window-maximized="1"
     inkscape:current-layer="svg2"
     borderlayer="true" />
  <rect
     style="opacity:1;fill:#1a1a1a;fill-opacity:1;stroke:none;stroke-width:0.38999999;stroke-linecap:round;stroke-linejoin:round;stroke-miterlimit:4;stroke-dasharray:none;stroke-opacity:1"
     id="rect4166"
     width="151.46855"
     height="133.22469"
     x="520.37256"
     y="-19.543146" />
  <g
     id="g4139">
    <path
       sodipodi:nodetypes="cccccccccccccccccccccccccccccccccsssss"
       inkscape:connector-curvature="0"
       id="path4209-2"
       d="m 66.339761,31.547496 -7.160926,-2.034864 -1.656516,6.323732 c -2.800962,-0.21127 -5.615154,0.165396 -8.261972,1.105821 l -3.068522,-5.567073 -6.520222,3.59363 3.163152,5.739148 c -2.101022,1.818608 -3.803185,4.052115 -4.999553,6.560169 l -6.42514,-1.640767 -1.841829,7.21265 6.364614,1.624549 c -0.190405,2.653891 0.146663,5.319217 0.991745,7.84215 l -5.596998,2.956718 3.477305,6.581864 5.756265,-3.040791 c 1.841061,2.213908 4.135211,4.007545 6.727903,5.260082 l -1.848778,6.403122 7.180374,1.966008 1.857304,-6.43494 c 2.822872,0.219006 5.66021,-0.159329 8.327063,-1.110362 l 3.018582,5.477839 6.519963,-3.592697 -3.117543,-5.656065 c 2.034503,-1.768368 3.693519,-3.926964 4.878822,-6.34799 l 6.434284,1.737033 1.940749,-7.187142 -6.394236,-1.726302 c 0.213006,-2.589134 -0.07668,-5.195054 -0.853087,-7.674228 l 5.673679,-2.997047 -3.477305,-6.581865 -5.691142,3.00634 C 69.846975,40.97788 67.446304,39.066535 64.714503,37.754474 Z m -6.609884,10.532502 c 7.64351,2.048068 12.179509,9.904648 10.131433,17.548156 C 67.813242,67.271665 59.956663,71.807659 52.313154,69.759587 44.669645,67.711514 40.133645,59.854939 42.181718,52.21143 44.22979,44.567921 52.086369,40.031922 59.729877,42.079998 Z"
       style="opacity:1;fill:#ffffff;fill-opacity:1;stroke:none;stroke-width:0.257;stroke-miterlimit:4;stroke-dasharray:none;stroke-opacity:1" />
    <g
       style="fill:#ffffff"
       transform="matrix(1.0455839,0,0,1.0455839,-2.5527016,-2.728679)"
       id="g4192">
      <path
         sodipodi:nodetypes="cccccccccccccccccccccccccccccccccsssss"
         inkscape:connector-curvature="0"
         id="path4209"
         d="M 63.412109,2.895903 48.332031,2.6687069 48.406251,15.912109 c -5.59194,1.05524 -10.901491,3.267941 -15.587891,6.496094 l -8.923828,-9.285156 -10.875,10.451172 9.199219,9.572265 C 19.060876,37.80695 16.901053,43.070188 15.875,48.605469 L 2.4414062,48.763672 2.6191406,63.84375 15.925781,63.685547 c 1.018949,5.293198 3.076101,10.332192 6.052735,14.826172 l -9.402344,8.720703 10.255859,11.05664 9.669922,-8.96875 c 4.763591,3.367023 10.193464,5.674037 15.923828,6.765626 l -0.260396,13.499572 15.082031,0.0824 0.260396,-13.566308 C 69.146681,95.050011 74.500646,92.821903 79.220703,89.5625 L 88,98.699219 98.875,88.25 89.808594,78.816406 c 3.054052,-4.527269 5.168701,-9.62129 6.21875,-14.980468 l 13.501956,0.02539 0.0293,-15.082031 -13.417965,-0.02539 C 95.199833,43.575535 93.266555,38.627945 90.447266,34.183594 l 9.53125,-8.839844 -10.25586,-11.056641 -9.560547,8.867188 C 75.22016,19.511176 69.52012,17.029675 63.486328,15.894531 Z M 56,26.972656 C 72.031363,26.972648 85.027352,39.968637 85.027344,56 85.027352,72.031363 72.031363,85.027352 56,85.027344 39.968637,85.027352 26.972648,72.031363 26.972656,56 26.972648,39.968637 39.968637,26.972648 56,26.972656 Z"
         style="opacity:1;fill:#ffffff;fill-opacity:1;stroke:none;stroke-width:0.257;stroke-miterlimit:4;stroke-dasharray:none;stroke-opacity:1" />
    </g>
    <path
       sodipodi:nodetypes="cccccccccccccccccccccccccccccccccsssss"
       inkscape:connector-curvature="0"
       id="path4209-2-3"
       d="m 54.159914,41.182391 -4.060062,1.022586 0.971457,3.545896 c -1.423663,0.684748 -2.68844,1.659584 -3.713158,2.861938 l -3.060078,-1.848641 -2.165215,3.58387 3.154554,1.90584 c -0.511934,1.476613 -0.712926,3.043139 -0.590348,4.601153 l -3.590862,1.007648 1.131185,4.030964 3.556819,-0.998526 c 0.653552,1.346164 1.567237,2.549567 2.688319,3.540759 l -1.894657,3.01403 3.544548,2.227956 1.948586,-3.09977 c 1.519284,0.560603 3.141071,0.789089 4.756105,0.67007 l 0.900128,3.638632 4.05018,-1.061566 -0.904933,-3.656525 c 1.43651,-0.687143 2.71209,-1.6693 3.743586,-2.882452 l 3.010658,1.819223 2.165357,-3.583347 -3.108977,-1.878199 c 0.493659,-1.433427 0.694695,-2.951333 0.591206,-4.463849 l 3.622347,-0.963462 -1.075832,-4.046357 -3.599825,0.957427 c -0.624277,-1.320999 -1.498176,-2.508793 -2.5735,-3.497982 l 1.920663,-3.05524 -3.544549,-2.227957 -1.926554,3.064678 c -1.586985,-0.621812 -3.293755,-0.877674 -4.993284,-0.748532 z m -0.257628,6.98877 c 4.298824,-1.151868 8.717484,1.399245 9.869348,5.698072 1.15187,4.298825 -1.399245,8.717483 -5.698071,9.869348 -4.298825,1.151869 -8.717484,-1.399244 -9.869348,-5.698071 -1.15187,-4.298825 1.399243,-8.717484 5.698071,-9.869349 z"
       style="opacity:1;fill:#ffffff;fill-opacity:1;stroke:none;stroke-width:0.257;stroke-miterlimit:4;stroke-dasharray:none;stroke-opacity:1" />
  </g>
</svg>
