<?xml version="1.0" encoding="UTF-8" standalone="no"?>
<!-- Created with Inkscape (http://www.inkscape.org/) -->

<svg
   xmlns:dc="http://purl.org/dc/elements/1.1/"
   xmlns:cc="http://creativecommons.org/ns#"
   xmlns:rdf="http://www.w3.org/1999/02/22-rdf-syntax-ns#"
   xmlns:svg="http://www.w3.org/2000/svg"
   xmlns="http://www.w3.org/2000/svg"
   xmlns:sodipodi="http://sodipodi.sourceforge.net/DTD/sodipodi-0.dtd"
   xmlns:inkscape="http://www.inkscape.org/namespaces/inkscape"
   id="svg2"
   version="1.1"
   inkscape:version="0.91 r13725"
   width="60"
   height="60"
   viewBox="0 0 59.999999 59.999999"
   sodipodi:docname="icon-hdd-1.svg">
  <metadata
     id="metadata8">
    <rdf:RDF>
      <cc:Work
         rdf:about="">
        <dc:format>image/svg+xml</dc:format>
        <dc:type
           rdf:resource="http://purl.org/dc/dcmitype/StillImage" />
        <dc:title></dc:title>
      </cc:Work>
    </rdf:RDF>
  </metadata>
  <defs
     id="defs6" />
  <sodipodi:namedview
     pagecolor="#ffffff"
     bordercolor="#666666"
     borderopacity="1"
     objecttolerance="10"
     gridtolerance="10"
     guidetolerance="10"
     inkscape:pageopacity="0"
     inkscape:pageshadow="2"
     inkscape:window-width="1440"
     inkscape:window-height="854"
     id="namedview4"
     showgrid="false"
     inkscape:zoom="3.8057272"
     inkscape:cx="5.0398431"
     inkscape:cy="9.8148234"
     inkscape:window-x="0"
     inkscape:window-y="27"
     inkscape:window-maximized="1"
     inkscape:current-layer="svg2" />
  <g
     id="g4121"
     style="fill:#ffffff"
     transform="matrix(3.1646329,0,0,3.1646329,-5.4254227,-7.1894164)">
    <path
       sodipodi:nodetypes="ssssssssssssssssss"
       inkscape:connector-curvature="0"
       id="rect3346"
       d="M 4.8306076,2.6938844 C 4.0585623,2.6966716 3.2966389,3.4025961 3.2966389,4.1686705 l 0,14.9335425 c 0,0.766074 0.6690382,1.759061 1.4410683,1.753486 l 12.8664658,-0.0929 c 0.772029,-0.0056 1.487518,-0.848062 1.487518,-1.614136 l 0,-15.119343 c 0,-0.7660744 -0.622573,-1.384673 -1.394618,-1.3818858 z m 1.8110877,2.0738627 9.1040837,0 c 0.772053,0 1.394619,0.6158087 1.394619,1.3818858 l 0,11.3399921 c 0,0.766077 -0.761927,1.285006 -1.53397,1.288986 l -9.0111829,0.04645 c -0.7720429,0.004 -1.3462148,-0.569359 -1.3462148,-1.335436 l 0,-11.3399921 c 0,-0.7660771 0.6206118,-1.3818858 1.392665,-1.3818858 z"
       style="opacity:1;fill:#ffffff;fill-opacity:1;stroke:none;stroke-width:0.25601947;stroke-miterlimit:4;stroke-dasharray:none;stroke-opacity:1" />
    <path
       sodipodi:nodetypes="cccccccccccccccccccccccccc"
       inkscape:connector-curvature="0"
       id="path3359"
       d="M 11.499138,6.7312332 C 11.346663,6.7112684 11.193284,6.6989512 11.039574,6.6943604 8.5008646,6.6190389 6.381815,8.6160911 6.3066454,11.154804 c -0.075321,2.53871 1.9217307,4.657759 4.4604446,4.732928 0.153742,0.003 0.307539,-0.0017 0.460811,-0.01404 L 10.53943,13.123998 10.165352,11.51152 C 9.8318925,11.43798 9.6062315,11.126533 9.6402201,10.786757 c 0.037459,-0.370324 0.3681989,-0.640054 0.7384889,-0.602264 0.339669,0.03505 0.599364,0.318736 0.604332,0.660172 l 1.68265,0.596972 2.675575,0.949145 c 0.0089,-0.0053 0.01981,-0.01257 0.02704,-0.01492 0.07634,-0.310847 0.121404,-0.628615 0.13172,-0.948575 0.06995,-2.3604257 -1.659319,-4.3901615 -4.000885,-4.6960498 z m -0.271237,9.1424568 0.04117,0.01988 0.002,2.02e-4 c 0.0048,-0.0093 0.0023,-0.01226 0.01072,-0.02836 -0.01797,0.0032 -0.03595,0.007 -0.05385,0.0083 z m 0.06785,-0.01078 c -0.0014,2.62e-4 -0.0026,0.0013 -0.0041,0.0016 -0.0018,0.0027 -0.0019,0.0064 -0.003,0.0095 0.002,-0.0051 0.0048,-0.0067 0.0071,-0.01106 z"
       style="opacity:1;fill:#ffffff;fill-opacity:1;stroke:none;stroke-width:0.257;stroke-miterlimit:4;stroke-dasharray:none;stroke-opacity:1" />
    <path
       sodipodi:nodetypes="cccc"
       inkscape:connector-curvature="0"
       id="path3373-6"
       d="m 14.026467,17.057405 c 1.291503,-0.0088 1.82113,-0.588288 1.959254,-1.461004 l -4.800772,-3.812415 z"
       style="fill:#ffffff;fill-opacity:1;fill-rule:evenodd;stroke:none;stroke-width:0.1;stroke-linecap:round;stroke-linejoin:bevel;stroke-miterlimit:4;stroke-dasharray:none;stroke-opacity:1" />
  </g>
</svg>
