<?xml version="1.0" encoding="UTF-8" standalone="no"?>
<!-- Created with Inkscape (http://www.inkscape.org/) -->

<svg
   xmlns:dc="http://purl.org/dc/elements/1.1/"
   xmlns:cc="http://creativecommons.org/ns#"
   xmlns:rdf="http://www.w3.org/1999/02/22-rdf-syntax-ns#"
   xmlns:svg="http://www.w3.org/2000/svg"
   xmlns="http://www.w3.org/2000/svg"
   xmlns:sodipodi="http://sodipodi.sourceforge.net/DTD/sodipodi-0.dtd"
   xmlns:inkscape="http://www.inkscape.org/namespaces/inkscape"
   id="svg4409"
   version="1.1"
   inkscape:version="0.91 r13725"
   width="60"
   height="60"
   viewBox="0 0 59.999999 59.999999"
   sodipodi:docname="icon-monitor-4.svg"
   inkscape:export-filename="/home/hhl/.kde/share/apps/ksplash/Themes/siduction_KSplash/images/icon4-4.png"
   inkscape:export-xdpi="246"
   inkscape:export-ydpi="246">
  <metadata
     id="metadata4415">
    <rdf:RDF>
      <cc:Work
         rdf:about="">
        <dc:format>image/svg+xml</dc:format>
        <dc:type
           rdf:resource="http://purl.org/dc/dcmitype/StillImage" />
        <dc:title></dc:title>
      </cc:Work>
    </rdf:RDF>
  </metadata>
  <defs
     id="defs4413" />
  <sodipodi:namedview
     pagecolor="#ffffff"
     bordercolor="#666666"
     borderopacity="1"
     objecttolerance="10"
     gridtolerance="10"
     guidetolerance="10"
     inkscape:pageopacity="0"
     inkscape:pageshadow="2"
     inkscape:window-width="1440"
     inkscape:window-height="853"
     id="namedview4411"
     showgrid="false"
     inkscape:zoom="3.8057273"
     inkscape:cx="-21.275273"
     inkscape:cy="10.962241"
     inkscape:window-x="-7"
     inkscape:window-y="17"
     inkscape:window-maximized="1"
     inkscape:current-layer="svg4409" />
  <path
     style="fill:#ffffff"
     d="m 11.637757,54.718297 c 0,-3.697953 0.273248,-4.016741 3.442921,-4.016741 2.29528,0 3.442921,-0.57382 3.442921,-1.72146 0,-1.415423 2.040249,-1.721464 11.476402,-1.721464 9.436153,0 11.476402,0.306031 11.476402,1.721464 0,1.14764 1.14764,1.72146 3.44292,1.72146 3.169676,0 3.442924,0.318788 3.442924,4.016741 l 0,4.01674 -18.362246,0 -18.362244,0 0,-4.01674 z M 2.4970139,42.743521 C 0.76415885,39.505651 0.92969965,4.486657 2.6861631,2.7301904 c 1.9536375,-1.95363712 52.6740379,-1.95363712 54.6276749,0 1.756466,1.7564666 1.922004,36.7754606 0.189133,40.0133306 -1.121531,2.0956 -2.660708,2.219831 -27.502986,2.219831 -24.842279,0 -26.381455,-0.124246 -27.5029874,-2.219831 z m 49.3081531,-20.159155 0,-14.345501 -21.805166,0 -21.8051639,0 0,14.345501 0,14.345505 21.8051639,0 21.805166,0 0,-14.345505 z"
     id="path4419"
     inkscape:connector-curvature="0" />
</svg>
