<?xml version="1.0" encoding="UTF-8" standalone="no"?>
<!-- Created with Inkscape (http://www.inkscape.org/) -->

<svg
   xmlns:dc="http://purl.org/dc/elements/1.1/"
   xmlns:cc="http://creativecommons.org/ns#"
   xmlns:rdf="http://www.w3.org/1999/02/22-rdf-syntax-ns#"
   xmlns:svg="http://www.w3.org/2000/svg"
   xmlns="http://www.w3.org/2000/svg"
   xmlns:sodipodi="http://sodipodi.sourceforge.net/DTD/sodipodi-0.dtd"
   xmlns:inkscape="http://www.inkscape.org/namespaces/inkscape"
   width="60mm"
   height="60mm"
   viewBox="0 0 212.59843 212.59842"
   id="svg4885"
   version="1.1"
   inkscape:version="0.91 r13725"
   sodipodi:docname="siductionflaticon-dots.svg">
  <defs
     id="defs4887" />
  <sodipodi:namedview
     id="base"
     pagecolor="#5a5a5a"
     bordercolor="#cc0000"
     borderopacity="1"
     inkscape:pageopacity="0"
     inkscape:pageshadow="2"
     inkscape:zoom="1.979899"
     inkscape:cx="37.670574"
     inkscape:cy="88.437477"
     inkscape:document-units="px"
     inkscape:current-layer="layer1"
     showgrid="false"
     borderlayer="true"
     inkscape:window-width="1440"
     inkscape:window-height="853"
     inkscape:window-x="-7"
     inkscape:window-y="17"
     inkscape:window-maximized="1" />
  <metadata
     id="metadata4890">
    <rdf:RDF>
      <cc:Work
         rdf:about="">
        <dc:format>image/svg+xml</dc:format>
        <dc:type
           rdf:resource="http://purl.org/dc/dcmitype/StillImage" />
        <dc:title></dc:title>
      </cc:Work>
    </rdf:RDF>
  </metadata>
  <g
     inkscape:label="Ebene 1"
     inkscape:groupmode="layer"
     id="layer1"
     transform="translate(0,-839.76378)">
    <g
       id="g6149"
       transform="matrix(2.6244664,0,0,2.5464163,-613.92774,-360.0356)"
       style="fill:#006680;stroke:none;stroke-opacity:1;stroke-width:1.1933559;stroke-miterlimit:4;stroke-dasharray:none;fill-opacity:1">
      <g
         inkscape:export-ydpi="89"
         inkscape:export-xdpi="89"
         inkscape:export-filename="/home/coruja/siduction/artwork/coruja.web.header.png"
         id="g6886-9-9"
         style="display:inline;fill:#006680;fill-opacity:1;stroke:none;stroke-opacity:1;stroke-width:0.72442583;stroke-miterlimit:4;stroke-dasharray:none"
         transform="matrix(1.6442375,0,0,1.6503937,-2398.2856,-1119.333)"
         inkscape:transform-center-x="0.75761441"
         inkscape:transform-center-y="2.3991123">
        <g
           transform="matrix(0.06941475,0,0,0.06941475,1566.4661,952.55637)"
           style="display:inline;fill:#006680;fill-opacity:1;stroke:none;stroke-opacity:1;stroke-width:10.43619454;stroke-miterlimit:4;stroke-dasharray:none"
           id="g6718-5-6-0">
          <path
             inkscape:connector-curvature="0"
             id="path4680-7-52-4"
             d="m 1182.5051,525.9733 c 0,-47.17499 -38.2417,-85.4166 -85.4166,-85.41659 -47.1758,9.8e-4 -85.4174,38.24261 -85.4175,85.41746 0,47.17489 38.2417,85.4165 85.4166,85.41659 47.1749,-8e-5 85.4177,-38.24286 85.4175,-85.41746 z"
             style="display:inline;fill:#006680;fill-opacity:1;fill-rule:nonzero;stroke:none;stroke-opacity:1;stroke-width:10.43619454;stroke-miterlimit:4;stroke-dasharray:none" />
          <path
             id="path4680-8-3-6-6"
             d="m 1038.8171,661.11962 c 0,-42.45748 -34.4175,-76.8749 -76.87491,-76.87492 -42.45823,8.1e-4 -76.8757,34.41829 -76.8757,76.87571 3e-5,42.45743 34.41745,76.87486 76.87492,76.87491 42.45739,-2e-5 76.87589,-34.41852 76.87569,-76.8757 z"
             style="display:inline;fill:#006680;fill-opacity:1;fill-rule:nonzero;stroke:none;stroke-opacity:1;stroke-width:10.43619454;stroke-miterlimit:4;stroke-dasharray:none"
             inkscape:connector-curvature="0" />
          <path
             id="path4680-87-9-5-7"
             d="m 1041.8584,393.8684 c 10e-5,-42.4574 -34.4174,-76.87487 -76.87485,-76.87489 -42.45824,8.2e-4 -76.87571,34.41829 -76.87571,76.87571 4e-5,42.45742 34.41751,76.87489 76.87489,76.87489 42.45727,-1.7e-4 76.87577,-34.41867 76.87567,-76.87571 z"
             style="display:inline;fill:#006680;fill-opacity:1;fill-rule:nonzero;stroke:none;stroke-opacity:1;stroke-width:10.43619454;stroke-miterlimit:4;stroke-dasharray:none"
             inkscape:connector-curvature="0" />
          <path
             id="path4680-8-4-0-87-6"
             d="m 899.0246,529.01469 c -2e-5,-38.21171 -30.97571,-69.18741 -69.18742,-69.18743 -38.2124,7.3e-4 -69.18813,30.97646 -69.18813,69.18813 3e-5,38.2117 30.97572,69.1874 69.18743,69.18742 38.21162,-5e-5 69.18826,-30.9767 69.18812,-69.18812 z"
             style="display:inline;fill:#006680;fill-opacity:1;fill-rule:nonzero;stroke:none;stroke-opacity:1;stroke-width:10.43619454;stroke-miterlimit:4;stroke-dasharray:none"
             inkscape:connector-curvature="0" />
          <path
             id="path4680-87-5-7-9-0"
             d="m 904.12658,263.82411 c -10e-6,-38.2117 -30.97571,-69.18741 -69.18741,-69.18741 -38.21241,7.2e-4 -69.18814,30.97646 -69.18814,69.18814 2e-5,38.21168 30.97572,69.18739 69.18741,69.18741 38.21163,-6e-5 69.18828,-30.97671 69.18814,-69.18814 z"
             style="display:inline;fill:#006680;fill-opacity:1;fill-rule:nonzero;stroke:none;stroke-opacity:1;stroke-width:10.43619454;stroke-miterlimit:4;stroke-dasharray:none"
             inkscape:connector-curvature="0" />
          <path
             id="path4680-87-6-2-6-9"
             d="m 905.87411,786.37515 c -3e-5,-38.21171 -30.97572,-69.1874 -69.18743,-69.18742 -38.2124,7.3e-4 -69.18813,30.97646 -69.18814,69.18814 4e-5,38.21169 30.97573,69.18738 69.18743,69.18743 38.21162,-7e-5 69.18828,-30.97672 69.18814,-69.18815 z"
             style="display:inline;fill:#006680;fill-opacity:1;fill-rule:nonzero;stroke:none;stroke-opacity:1;stroke-width:10.43619454;stroke-miterlimit:4;stroke-dasharray:none"
             inkscape:connector-curvature="0" />
          <path
             id="path4680-8-4-2-7-0-7"
             d="m 766.85033,654.2702 c -10e-6,-34.39054 -27.87814,-62.26867 -62.26867,-62.26867 -34.39116,6.5e-4 -62.26931,27.8788 -62.26931,62.2693 10e-6,34.39053 27.87814,62.26866 62.26867,62.26868 34.39046,-5e-5 62.26944,-27.87903 62.26931,-62.26931 z"
             style="display:inline;fill:#006680;fill-opacity:1;fill-rule:nonzero;stroke:none;stroke-opacity:1;stroke-width:10.43619454;stroke-miterlimit:4;stroke-dasharray:none"
             inkscape:connector-curvature="0" />
          <path
             id="path4680-87-5-9-2-4-5"
             d="m 762.06153,398.97041 c -3e-5,-34.39053 -27.87816,-62.26866 -62.26867,-62.26867 -34.39118,6.6e-4 -62.26933,27.87881 -62.26932,62.26932 0,34.39052 27.87814,62.26865 62.26867,62.26868 34.39046,-5e-5 62.26945,-27.87905 62.26932,-62.26933 z"
             style="display:inline;fill:#006680;fill-opacity:1;fill-rule:nonzero;stroke:none;stroke-opacity:1;stroke-width:10.43619454;stroke-miterlimit:4;stroke-dasharray:none"
             inkscape:connector-curvature="0" />
          <path
             id="path4680-8-4-2-6-9-1-9"
             d="m 630.57914,524.22594 c -1e-5,-30.95148 -25.09033,-56.0418 -56.04182,-56.04181 -30.95204,5.8e-4 -56.04238,25.09092 -56.04238,56.04239 2e-5,30.95147 25.09034,56.04179 56.04181,56.04181 30.95142,-5e-5 56.04251,-25.09114 56.04239,-56.04239 z"
             style="display:inline;fill:#006680;fill-opacity:1;fill-rule:nonzero;stroke:none;stroke-opacity:1;stroke-width:10.43619454;stroke-miterlimit:4;stroke-dasharray:none"
             inkscape:connector-curvature="0" />
        </g>
      </g>
    </g>
  </g>
</svg>
