<?xml version="1.0" encoding="UTF-8" standalone="no"?>
<!-- Created with Inkscape (http://www.inkscape.org/) -->

<svg
   xmlns:dc="http://purl.org/dc/elements/1.1/"
   xmlns:cc="http://creativecommons.org/ns#"
   xmlns:rdf="http://www.w3.org/1999/02/22-rdf-syntax-ns#"
   xmlns:svg="http://www.w3.org/2000/svg"
   xmlns="http://www.w3.org/2000/svg"
   xmlns:sodipodi="http://sodipodi.sourceforge.net/DTD/sodipodi-0.dtd"
   xmlns:inkscape="http://www.inkscape.org/namespaces/inkscape"
   id="svg2"
   version="1.1"
   inkscape:version="0.91 r13725"
   width="60"
   height="60"
   viewBox="0 0 59.999999 59.999999"
   sodipodi:docname="icon-tool-2.svg"
   inkscape:export-filename="/home/hhl/.kde/share/apps/ksplash/Themes/siduction_KSplash/images/icon2-2.png"
   inkscape:export-xdpi="246.3"
   inkscape:export-ydpi="246.3">
  <metadata
     id="metadata8">
    <rdf:RDF>
      <cc:Work
         rdf:about="">
        <dc:format>image/svg+xml</dc:format>
        <dc:type
           rdf:resource="http://purl.org/dc/dcmitype/StillImage" />
        <dc:title></dc:title>
      </cc:Work>
    </rdf:RDF>
  </metadata>
  <defs
     id="defs6" />
  <sodipodi:namedview
     pagecolor="#ffffff"
     bordercolor="#666666"
     borderopacity="1"
     objecttolerance="10"
     gridtolerance="10"
     guidetolerance="10"
     inkscape:pageopacity="0"
     inkscape:pageshadow="2"
     inkscape:window-width="1440"
     inkscape:window-height="853"
     id="namedview4"
     showgrid="false"
     inkscape:zoom="3.8057273"
     inkscape:cx="-11.634359"
     inkscape:cy="11.347447"
     inkscape:window-x="-7"
     inkscape:window-y="17"
     inkscape:window-maximized="1"
     inkscape:current-layer="svg2" />
  <path
     style="fill:#ffffff;stroke:none;stroke-width:0.30000001;stroke-miterlimit:4;stroke-dasharray:none;stroke-opacity:1"
     d="m 20.745682,1.1898537 c -0.354616,0.0093 -0.667389,0.1418025 -0.964315,0.3882304 -0.85171,0.7068581 -1.546657,2.2780415 -1.546654,3.4878063 0,1.3314432 -0.830047,2.1978812 -2.097694,2.1978812 -3.060542,0 -12.9716491,10.5687054 -14.3206645,15.2724514 -0.637095,2.221423 -1.15842675,5.760195 -1.15842675,7.858523 0,3.288469 0.40604305,3.813417 2.93050605,3.813417 2.0771776,0 2.9305093,-0.635669 2.9305093,-2.185356 0,-3.604963 4.5140609,-8.359464 7.9399209,-8.359464 3.759494,0 11.972503,7.581465 11.972503,11.052023 0,1.431279 4.300598,6.696704 10.814075,13.237381 5.947315,5.972146 11.410324,10.857905 12.141568,10.857905 2.594864,0 7.507861,-4.894534 7.507861,-7.482813 -7e-6,-2.93083 -21.395245,-24.823281 -23.181066,-23.719584 -0.56543,0.349457 -3.54269,-1.911596 -6.612427,-5.028199 C 20.980093,16.365329 20.357191,12.802464 25.272939,12.141689 30.507953,11.437998 30.642295,9.830022 25.87407,4.9469148 23.259667,2.2695244 21.809521,1.1621792 20.745682,1.1898537 Z m 23.455889,2.62275 C 39.357603,4.8291864 36.101749,8.71697 35.11018,14.070312 c -0.439873,2.374812 -1.560468,5.227072 -2.523494,6.33065 -2.144309,2.457264 -1.142698,5.604283 1.784605,5.604283 1.185729,0 3.182606,0.775983 4.433328,1.721985 2.640892,1.99747 3.651951,2.177254 4.502211,0.801507 0.337214,-0.545621 2.258829,-1.038794 4.264264,-1.095811 6.935153,-0.19717 11.17919,-6.298118 11.770978,-12.783972 0,0 -0.487647,-4.102763 -1.737493,-5.5830081 L 49.81881,18.638389 44.378537,17.574382 44.033376,12.431764 50.756386,4.3827345 C 48.805808,3.4973649 46.240712,3.3846571 44.201571,3.8126037 Z M 22.123269,32.436084 c -1.427368,0.06364 -3.621735,2.051959 -9.273679,7.833471 -9.0891882,9.297554 -10.581468,12.95026 -6.8315883,16.700139 3.3371361,3.337133 6.4324763,2.036016 14.9593633,-6.274295 8.001192,-7.797967 8.246315,-8.193716 6.305602,-10.338179 -1.110385,-1.226965 -2.022551,-3.047157 -2.022551,-4.045103 0,-0.997946 -0.83845,-2.516034 -1.866006,-3.368831 -0.405732,-0.336728 -0.795351,-0.528414 -1.271141,-0.507202 z M 10.68928,50.607734 c 0.928468,-3e-6 1.684997,1.005964 1.684417,1.972459 -10e-4,1.764295 -3.4634576,2.550717 -3.8697752,0.795245 -0.3344852,-1.445122 0.4340671,-2.767701 2.1853582,-2.767704 z"
     id="path3338"
     inkscape:connector-curvature="0"
     sodipodi:nodetypes="csssssssssssssssscsssssssscccccsssssssssssss" />
</svg>
